<?xml version="1.0" encoding="UTF-8" standalone="no" ?>
<svg id="Layer_1"
     data-name="Layer 1"
     viewBox="0 0 250 30"
     version="1.1"
     sodipodi:docname="brand.svg"
     width="250"
     height="30"
     inkscape:version="1.1 (c68e22c387, 2021-05-23)"
     xmlns:inkscape="http://www.inkscape.org/namespaces/inkscape"
     xmlns:sodipodi="http://sodipodi.sourceforge.net/DTD/sodipodi-0.dtd"
     xmlns="http://www.w3.org/2000/svg"
     xmlns:svg="http://www.w3.org/2000/svg">
    <sodipodi:namedview id="namedview952"
                        pagecolor="#505050"
                        bordercolor="#eeeeee"
                        borderopacity="1"
                        inkscape:pageshadow="0"
                        inkscape:pageopacity="0"
                        inkscape:pagecheckerboard="0"
                        showgrid="false"
                        width="250px"
                        inkscape:zoom="3.109375"
                        inkscape:cx="120.28141"
                        inkscape:cy="50.81407"
                        inkscape:window-width="1920"
                        inkscape:window-height="1000"
                        inkscape:window-x="-11"
                        inkscape:window-y="-11"
                        inkscape:window-maximized="1"
                        inkscape:current-layer="Layer_1" />
    <defs id="defs891">
        <style id="style889">
            .cls-1 {
                fill: #8b8e8f;
            }

            .cls-2 {
                fill: #3bc9ed;
            }
        </style>
    </defs>
    <path class="cls-1"
          d="M 24.04333,10.751646 H 10.792085 v 5.375878 a 1.1992382,0.75722458 0 0 0 0.245149,0.508301 1.6232781,1.0249725 0 0 0 0.831514,0.280298 v 0.349328 H 4.7163875 v -0.349328 a 1.7259753,1.0898177 0 0 0 0.8414477,-0.284479 1.2091765,0.76349993 0 0 0 0.235215,-0.50412 V 3.480617 A 1.2058638,0.76140813 0 0 0 5.5578352,2.9785917 1.6994729,1.0730834 0 0 0 4.7163875,2.6941074 V 2.3447809 H 11.878683 V 2.6941074 A 1.5636474,0.98732045 0 0 0 11.04054,2.9723155 1.2290534,0.77605058 0 0 0 10.80202,3.480617 V 8.2917121 H 24.053274 V 3.480617 A 1.2456174,0.78650948 0 0 0 23.818059,2.9723155 1.5901499,1.0040546 0 0 0 22.976611,2.6941074 V 2.3447809 h 7.162296 V 2.6941074 A 1.6994729,1.0730834 0 0 0 29.29745,2.9785917 1.2058638,0.76140813 0 0 0 29.062244,3.480617 v 12.644817 a 1.2091765,0.76349993 0 0 0 0.235206,0.504115 1.7259753,1.0898177 0 0 0 0.841457,0.284484 v 0.349327 h -7.17224 v -0.349327 a 1.6232781,1.0249725 0 0 0 0.831514,-0.280298 1.1992382,0.75722458 0 0 0 0.245149,-0.508301 z"
          id="path893"
          style="stroke-width:0.263242" />
    <path class="cls-1"
          d="m 46.881861,2.0833091 q 6.009445,0 9.524338,2.1085125 3.716972,2.2089243 3.716972,5.7042874 a 12.045385,7.6057142 0 0 1 -1.782288,3.993207 q -3.481766,3.627149 -11.425895,3.627149 -5.963058,0 -9.471331,-2.108512 A 11.641224,7.3505168 0 0 1 34.584705,12.70746 12.565497,7.9341235 0 0 1 33.726685,9.7894311 12.383293,7.8190758 0 0 1 35.492418,5.691631 q 3.38569,-3.5434788 11.389443,-3.6083219 z m 0.01653,2.5352381 q -3.27968,0 -5.469455,1.2655268 -2.590619,1.4977142 -2.590619,3.9199989 0,2.4222801 2.590619,3.9199941 2.186462,1.25507 5.502582,1.265526 3.31613,0.01048 5.489335,-1.265526 a 7.9507501,5.0202735 0 0 0 1.987689,-1.847041 8.5834971,5.4198033 0 0 0 0.606243,-2.0081103 q 0,-2.533143 -2.590618,-3.9743804 -2.209646,-1.2529799 -5.525776,-1.2759881 z"
          id="path895"
          style="stroke-width:0.263242" />
    <path class="cls-1"
          d="m 69.806525,11.207656 v 4.917778 a 1.1992382,0.75722458 0 0 0 0.245148,0.508301 1.6067141,1.0145136 0 0 0 0.831515,0.280298 v 0.349327 h -7.162296 v -0.349327 a 1.7425394,1.1002765 0 0 0 0.841449,-0.284484 1.2091765,0.76349993 0 0 0 0.235213,-0.504115 V 3.4931676 A 1.2389918,0.78232593 0 0 0 64.562341,2.9785917 1.7127241,1.0814506 0 0 0 63.720892,2.6941074 V 2.3447809 h 14.324601 a 18.243659,11.519435 0 0 1 3.975371,0.2091794 6.8707732,4.3383529 0 0 1 2.597246,0.7551311 5.9630624,3.765205 0 0 1 1.815423,1.4642497 7.73873,4.8863994 0 0 1 0.662564,1.989283 7.1854904,4.5370721 0 0 1 -1.242307,2.6440113 5.8537396,3.6961763 0 0 1 -2.849017,1.3826656 q -1.772354,0.418355 -4.95266,0.418355 z m 0,-2.4578441 h 7.649279 c 1.5239,0 2.597247,-0.1066778 3.213435,-0.3179481 a 2.3520969,1.4851642 0 0 0 0.947458,-0.661004 3.5877759,2.2653984 0 0 0 0,-1.989283 2.3686609,1.4956231 0 0 0 -0.947458,-0.6610041 Q 79.758213,4.8047149 77.455804,4.8047149 h -7.649279 z"
          id="path897"
          style="stroke-width:0.263242" />
    <path class="cls-1"
          d="m 96.150003,10.716087 v 4.087339 h 14.761907 a 1.1131051,0.70283827 0 0 0 0.77189,-0.152699 1.8054829,1.1400204 0 0 0 0.43728,-0.545955 h 0.53999 v 3.857242 h -0.53999 A 1.8054829,1.1400204 0 0 0 111.6838,17.416059 1.1131051,0.70283827 0 0 0 110.91191,17.26336 H 90.067687 v -0.349327 a 1.729288,1.0919094 0 0 0 0.838144,-0.284484 1.2191151,0.76977523 0 0 0 0.235206,-0.514577 V 3.4931676 A 1.2191151,0.76977523 0 0 0 90.905831,2.9785917 1.6994729,1.0730834 0 0 0 90.067687,2.6941074 V 2.3447809 h 20.443363 a 1.0932282,0.69028757 0 0 0 0.77189,-0.1568843 1.7524778,1.106552 0 0 0 0.43729,-0.5417696 h 0.54 v 3.8572415 h -0.54 a 1.7491651,1.1044602 0 0 0 -0.43729,-0.54386 1.0899152,0.68819582 0 0 0 -0.77189,-0.1547936 H 96.150003 v 3.5392934 h 9.312327 a 1.1164178,0.70493007 0 0 0 0.77519,-0.1526983 1.8054829,1.1400204 0 0 0 0.43731,-0.5459553 h 0.53666 V 11.41056 h -0.53666 a 1.8419238,1.16303 0 0 0 -0.43731,-0.541775 1.0866025,0.68610402 0 0 0 -0.77519,-0.158974 z"
          id="path899"
          style="stroke-width:0.263242" />
    <path class="cls-1"
          d="m 137.58004,3.608217 -2.73969,3.5120999 -0.47043,-0.1736158 c 0,-0.073214 0,-0.1317857 0,-0.175711 0,-0.2468295 -0.33126,-0.5145766 -0.97727,-0.7969703 a 11.733982,7.4090868 0 0 0 -7.02647,-1.3554726 10.07095,6.3590132 0 0 0 -3.14387,0.2823893 3.7434781,2.363712 0 0 0 -1.60671,0.6568186 2.22621,1.4056766 0 0 0 -0.61287,0.9496686 c 0,0.560597 0.52011,0.9413025 1.56365,1.146297 a 23.954948,15.125666 0 0 0 3.4619,0.326319 l 2.65023,0.1757061 a 20.936975,13.220054 0 0 1 3.80976,0.4476435 8.792204,5.5515856 0 0 1 2.58066,0.7969704 5.8636781,3.7024515 0 0 1 1.80548,1.4077683 6.7382606,4.2546817 0 0 1 0.66257,1.867958 6.8542091,4.327894 0 0 1 -1.56365,2.796709 q -1.3947,1.114919 -4.37623,1.648323 a 17.057671,10.770579 0 0 1 -4.75719,0.403714 19.688046,12.431452 0 0 1 -8.99428,-1.420315 4.681004,2.9556859 0 0 0 -1.12636,-0.284485 1.3814428,0.87227249 0 0 0 -0.68908,0.240555 l -0.4903,-0.16316 2.47468,-3.662708 0.48698,0.154793 v 0.140147 a 1.9181184,1.2111409 0 0 0 0.72221,0.907834 q 1.09323,0.627534 3.37907,1.094 a 14.354416,9.0636851 0 0 0 4.35634,0.4581 8.5735587,5.4135281 0 0 0 3.81968,-0.491569 3.726914,2.3532532 0 0 0 1.39468,-0.723752 2.5111119,1.5855696 0 0 0 0.52012,-0.945487 q 0,-0.740489 -1.22574,-1.056347 -0.86133,-0.20918 -3.46521,-0.403713 l -2.58731,-0.175711 a 34.579137,21.834006 0 0 1 -3.68382,-0.332595 9.468018,5.9783087 0 0 1 -2.15004,-0.5083 5.6615966,3.574853 0 0 1 -2.40509,-1.4767972 6.46661,4.0831556 0 0 1 -0.79177,-2.0353034 6.625625,4.1835611 0 0 1 1.98769,-3.1272139 q 2.62373,-1.6315851 7.86793,-1.6294954 a 17.345886,10.952563 0 0 1 4.11119,0.3012162 30.365239,19.17326 0 0 1 4.74065,1.0688979 5.0089726,3.1627722 0 0 0 1.19261,0.253105 1.3648788,0.86181359 0 0 0 0.82488,-0.253105 z"
          id="path901"
          style="stroke-width:0.263242" />
    <path class="cls-1"
          d="M 153.72007,4.8047149 V 16.114972 a 1.2389918,0.78232593 0 0 0 0.23521,0.514577 1.7259753,1.0898177 0 0 0 0.84145,0.284484 v 0.349327 h -7.16231 v -0.349327 a 1.7425394,1.1002765 0 0 0 0.85804,-0.284484 1.2389918,0.78232593 0 0 0 0.2352,-0.514577 V 4.8047149 h -7.14575 a 1.129669,0.71329717 0 0 0 -0.77519,0.1485178 1.7856061,1.1274697 0 0 0 -0.43728,0.5501358 h -0.53668 V 1.646127 h 0.53668 a 1.9181184,1.2111409 0 0 0 0.44722,0.5480458 1.0932282,0.69028757 0 0 0 0.76525,0.1506081 h 19.25077 a 1.1495459,0.72584787 0 0 0 0.78844,-0.1506081 1.7160368,1.0835424 0 0 0 0.4373,-0.5480458 h 0.53999 v 3.8572415 h -0.52342 a 1.729288,1.0919094 0 0 0 -0.4373,-0.5501358 1.1495459,0.72584787 0 0 0 -0.78845,-0.1485178 z"
          id="path903"
          style="stroke-width:0.263242" />
    <path class="cls-1"
          d="m 177.26755,2.0833091 q 6.0028,0 9.52102,2.1085125 3.71696,2.2089243 3.72028,5.7042874 a 12.018884,7.5889798 0 0 1 -1.7856,3.993207 q -3.48177,3.635516 -11.40934,3.635516 -5.96304,0 -9.47132,-2.108513 a 11.641224,7.3505168 0 0 1 -2.85895,-2.700488 12.565497,7.9341235 0 0 1 -0.85803,-2.9180338 12.353478,7.8002495 0 0 1 1.76573,-4.0978002 q 3.36582,-3.5518448 11.37621,-3.6166879 z m 0,2.5352381 q -3.28633,0 -5.46946,1.2655268 -2.59393,1.495624 -2.59393,3.9199989 0,2.4243701 2.59393,3.9199941 2.18645,1.25507 5.50257,1.265526 3.31613,0.01048 5.48603,-1.265526 a 7.914309,4.9972638 0 0 0 1.98768,-1.847041 8.5834971,5.4198033 0 0 0 0.60625,-2.0081103 q 0,-2.533143 -2.59393,-3.9743804 -2.18315,-1.2529799 -5.50258,-1.2759881 z"
          id="path905"
          style="stroke-width:0.263242" />
    <path class="cls-1"
          d="m 199.77148,7.0450129 v 9.0699591 a 1.2389918,0.78232593 0 0 0 0.2352,0.514577 1.7259753,1.0898177 0 0 0 0.84145,0.284484 v 0.349327 h -6.74157 v -0.349327 a 1.729288,1.0919094 0 0 0 0.83814,-0.284484 1.2191151,0.76977523 0 0 0 0.23521,-0.514577 V 3.480617 A 1.1859868,0.74885743 0 0 0 194.9447,2.9785917 1.6994729,1.0730834 0 0 0 194.10656,2.6941074 V 2.3447809 h 7.79837 v 0.3493265 c -0.48037,0.081578 -0.72219,0.2489247 -0.72219,0.5020297 a 1.431135,0.90364923 0 0 0 0.47041,0.5794243 l 12.66156,8.5574736 V 3.480617 a 1.2058638,0.76140813 0 0 0 -0.2352,-0.5020253 1.7127241,1.0814506 0 0 0 -0.84146,-0.2844843 V 2.3447809 h 6.74159 v 0.3493265 a 1.7127241,1.0814506 0 0 0 -0.84147,0.2844843 1.2058638,0.76140813 0 0 0 -0.2352,0.5020253 v 12.634355 a 1.2389918,0.78232593 0 0 0 0.2352,0.514577 1.7425394,1.1002765 0 0 0 0.84147,0.284484 v 0.349327 h -7.21862 v -0.349327 q 0.70563,-0.100407 0.70563,-0.470651 0,-0.219637 -0.8249,-0.765592 z"
          id="path907"
          style="stroke-width:0.263242" />
    <path class="cls-1"
          d="m 230.20296,10.716087 v 4.087339 h 14.7619 a 1.1131051,0.70283827 0 0 0 0.77189,-0.152699 1.8054829,1.1400204 0 0 0 0.43729,-0.545955 h 0.54 v 3.857242 h -0.54 a 1.8054829,1.1400204 0 0 0 -0.43729,-0.545955 1.1131051,0.70283827 0 0 0 -0.77189,-0.152699 h -20.84753 v -0.349327 a 1.7127241,1.0814506 0 0 0 0.83815,-0.284484 1.2191151,0.76977523 0 0 0 0.23852,-0.514577 V 3.4931676 A 1.2191151,0.76977523 0 0 0 224.95548,2.9785917 1.6862215,1.0647163 0 0 0 224.11733,2.6941074 V 2.3447809 h 20.44668 a 1.1064794,0.69865472 0 0 0 0.77521,-0.1568843 1.7789804,1.1232861 0 0 0 0.43398,-0.5417696 h 0.53997 v 3.8572415 h -0.53997 a 1.7789804,1.1232861 0 0 0 -0.43398,-0.54386 1.1064794,0.69865472 0 0 0 -0.77521,-0.1547936 h -14.36105 v 3.5392934 h 9.31564 a 1.1131051,0.70283827 0 0 0 0.7719,-0.1526983 1.8054829,1.1400204 0 0 0 0.43728,-0.5459553 h 0.52341 V 11.41056 h -0.53666 a 1.8419238,1.16303 0 0 0 -0.4373,-0.541775 1.0832897,0.68401222 0 0 0 -0.77189,-0.158974 z"
          id="path909"
          style="stroke-width:0.263242" />
    <path class="cls-2"
          d="m 13.66098,25.902413 1.278741,1.242518 -0.17558,0.07949 a 0.51348595,0.32422599 0 0 0 -0.30809,-0.112958 2.3189688,1.4642464 0 0 0 -0.662563,0.20918 9.1963673,5.8067831 0 0 1 -1.947931,0.585695 A 6.5494302,4.1354502 0 0 1 9.9638771,28.056946 5.72454,3.6145968 0 0 1 6.372794,27.389672 4.4789225,2.8280873 0 0 1 5.0807958,26.421175 4.929465,3.1125695 0 0 1 4.5374925,24.95693 4.7605116,3.0058886 0 0 1 5.5114593,23.074325 q 1.4675793,-1.202774 4.4325396,-1.202774 a 6.5693072,4.1480009 0 0 1 1.8717441,0.148519 9.4713308,5.9804008 0 0 1 1.951248,0.587789 2.4249788,1.5311833 0 0 0 0.662563,0.20918 0.50686031,0.32004243 0 0 0 0.308089,-0.115048 l 0.17558,0.07949 -1.27875,1.255066 -0.178886,-0.07949 c 0,-0.04601 0,-0.08577 0,-0.117145 a 0.53336281,0.33677667 0 0 0 -0.16896,-0.236368 2.7595728,1.7424532 0 0 0 -0.599613,-0.267747 4.9394034,3.1188448 0 0 0 -2.52105,-0.437183 3.7037244,2.3386107 0 0 0 -2.5111138,0.512487 3.3293766,2.1022395 0 0 0 0,3.13767 3.7004115,2.3365189 0 0 0 2.5111138,0.510391 4.9095881,3.1000188 0 0 0 2.52105,-0.437182 2.878834,1.8177574 0 0 0 0.599613,-0.267747 0.54661407,0.3451438 0 0 0 0.16896,-0.238464 c 0,-0.03346 0,-0.07112 0,-0.115043 z"
          id="path911"
          style="stroke-width:0.263242" />
    <path class="cls-2"
          d="m 22.880535,21.877827 q 2.405104,0 3.809733,0.836715 a 4.7273835,2.9849709 0 0 1 1.487457,2.282132 4.8234549,3.0456325 0 0 1 -0.712254,1.600212 q -1.394696,1.451694 -4.571686,1.451694 -2.385226,0 -3.789856,-0.836711 a 4.6379375,2.9284928 0 0 1 -1.142918,-1.081449 5.1315466,3.240168 0 0 1 0.361095,-2.80717 q 1.358253,-1.41823 4.558429,-1.445423 z m 0,1.014516 a 3.1206694,1.9704573 0 0 0 -2.189767,0.508301 3.4917044,2.2047367 0 0 0 0,3.13767 3.4188225,2.1587175 0 0 0 4.399412,0 3.1902384,2.0143847 0 0 0 0.795072,-0.738398 3.4983299,2.2089203 0 0 0 0.241843,-0.803242 3.1968641,2.0185683 0 0 0 -1.036915,-1.59394 3.2498691,2.0520367 0 0 0 -2.203016,-0.518757 z"
          id="path913"
          style="stroke-width:0.263242" />
    <path class="cls-2"
          d="m 33.663744,23.862929 v 3.622964 a 0.48698345,0.30749174 0 0 0 0.09275,0.209175 0.69569063,0.43927392 0 0 0 0.331283,0.112958 v 0.140152 H 31.38784 v -0.140152 a 0.69569063,0.43927392 0 0 0 0.331282,-0.112958 0.48698345,0.30749174 0 0 0 0.09277,-0.209175 V 22.438424 A 0.47373218,0.29912462 0 0 0 31.719118,22.229249 0.6625625,0.41835611 0 0 0 31.387836,22.1142 V 21.974049 H 34.5317 V 22.1142 c -0.195457,0.03346 -0.291534,0.100407 -0.291534,0.209181 a 0.56317813,0.35560269 0 0 0 0.188837,0.230091 l 5.065291,3.424245 V 22.438424 A 0.47373218,0.29912462 0 0 0 39.401531,22.229249 0.6625625,0.41835611 0 0 0 39.070249,22.1142 v -0.140151 h 2.699944 V 22.1142 a 0.6625625,0.41835611 0 0 0 -0.331281,0.115049 0.47373218,0.29912462 0 0 0 -0.09277,0.209175 v 5.047469 a 0.48698345,0.30749174 0 0 0 0.09277,0.209175 0.69569063,0.43927392 0 0 0 0.331281,0.112958 v 0.140152 h -2.892086 v -0.140152 c 0.185514,-0.0251 0.28159,-0.08786 0.28159,-0.188262 0,-0.05647 -0.109318,-0.158974 -0.331281,-0.305397 z"
          id="path915"
          style="stroke-width:0.263242" />
    <path class="cls-2"
          d="m 53.726134,22.48863 -1.096541,1.405673 -0.188829,-0.06902 c 0,-0.0293 0,-0.05229 0,-0.07112 0,-0.09832 -0.129203,-0.209179 -0.390914,-0.317953 a 4.6975682,2.9661449 0 0 0 -2.812576,-0.54386 3.9157444,2.4724847 0 0 0 -1.255557,0.115049 1.4510119,0.9161999 0 0 0 -0.642685,0.261471 0.88120812,0.55641361 0 0 0 -0.245148,0.380705 0.74538282,0.47065063 0 0 0 0.622807,0.4581 10.160396,6.4154909 0 0 0 1.388066,0.131781 l 1.056793,0.06902 a 8.2820312,5.2294516 0 0 1 1.523889,0.179892 3.5115814,2.2172874 0 0 1 1.030286,0.317953 2.3653482,1.4935313 0 0 1 0.725505,0.564778 2.7098806,1.7110766 0 0 1 0.265026,0.74677 2.7463215,1.7340861 0 0 1 -0.626121,1.119099 3.3360022,2.106423 0 0 1 -1.755789,0.658913 6.7879528,4.2860584 0 0 1 -1.904872,0.161064 7.8778682,4.974254 0 0 1 -3.591083,-0.571053 1.8187341,1.1483875 0 0 0 -0.450541,-0.115049 0.57974218,0.3660616 0 0 0 -0.278277,0.09622 l -0.192142,-0.06484 0.993835,-1.464251 0.195459,0.06066 v 0.05648 a 0.76194687,0.48110953 0 0 0 0.28822,0.361873 3.6440938,2.3009586 0 0 0 1.354938,0.439278 5.7609809,3.6376064 0 0 0 1.732597,0.181982 3.4022584,2.1482586 0 0 0 1.527213,-0.196624 1.4742015,0.93084233 0 0 0 0.559858,-0.288669 0.99384378,0.62753416 0 0 0 0.208706,-0.378611 0.68906501,0.43509036 0 0 0 -0.490288,-0.418355 6.2247747,3.9304557 0 0 0 -1.388075,-0.161069 l -1.033592,-0.07112 a 12.963036,8.1851376 0 0 1 -1.474208,-0.133876 3.6440938,2.3009586 0 0 1 -0.861328,-0.209175 2.2692766,1.4328697 0 0 1 -0.960716,-0.589885 2.5773681,1.6274052 0 0 1 -0.331282,-0.815793 2.6502499,1.6734244 0 0 1 0.801702,-1.25507 q 1.050164,-0.652633 3.147169,-0.652633 a 6.9569063,4.3927392 0 0 1 1.656408,0.117139 11.856557,7.4864826 0 0 1 1.894928,0.418354 2.050631,1.2948122 0 0 0 0.480363,0.100408 0.54992687,0.34723558 0 0 0 0.331282,-0.100408 z"
          id="path917"
          style="stroke-width:0.263242" />
    <path class="cls-2"
          d="m 61.961788,22.967647 v 4.518246 a 0.48698345,0.30749174 0 0 0 0.09276,0.209175 0.69569063,0.43927392 0 0 0 0.331282,0.112958 v 0.140152 h -2.865577 v -0.140152 a 0.68243938,0.4309068 0 0 0 0.33128,-0.112958 0.48698345,0.30749174 0 0 0 0.09607,-0.209175 v -4.518246 h -2.852331 a 0.44391687,0.28029859 0 0 0 -0.311404,0.06066 0.70562906,0.44554926 0 0 0 -0.172265,0.209175 H 56.396255 V 21.69375 h 0.215337 a 0.76857251,0.48529309 0 0 0 0.175579,0.20918 0.44391687,0.28029859 0 0 0 0.308089,0.05857 h 7.702294 a 0.45716813,0.28866572 0 0 0 0.314718,-0.05857 0.70894188,0.44764104 0 0 0 0.17558,-0.20918 h 0.215327 v 1.543734 h -0.215327 a 0.6625625,0.41835611 0 0 0 -0.17558,-0.209175 0.44391687,0.28029859 0 0 0 -0.314718,-0.06066 z"
          id="path919"
          style="stroke-width:0.263242" />
    <path class="cls-2"
          d="m 70.641354,25.517527 v 1.980917 a 0.47373218,0.29912462 0 0 0 0.09937,0.209175 0.62280875,0.39325475 0 0 0 0.33128,0.110868 v 0.140147 h -2.865579 v -0.140147 a 0.69569063,0.43927392 0 0 0 0.331282,-0.112958 0.49029625,0.30958352 0 0 0 0.09277,-0.209181 V 22.442609 A 0.50686031,0.32004243 0 0 0 68.537712,22.23343 0.6625625,0.41835611 0 0 0 68.20643,22.118386 v -0.140152 h 5.747732 a 8.8021431,5.5578609 0 0 1 1.656408,0.07949 2.8854597,1.8219409 0 0 1 1.07335,0.276113 2.1566409,1.3617491 0 0 1 0.791757,0.627534 3.2631203,2.0604039 0 0 1 0.251778,0.803242 q 0,1.46425 -2.497865,1.71108 l 1.782296,1.648321 a 5.7079759,3.6041379 0 0 0 0.689061,0.556412 0.85139281,0.53758761 0 0 0 0.536682,0.138062 v 0.140146 h -3.312815 v -0.140146 c 0.228585,-0.02302 0.331282,-0.07531 0.331282,-0.156885 A 1.7822931,1.125378 0 0 0 74.924821,27.280895 L 73.066334,25.5238 Z m 0,-0.985228 h 3.094164 a 8.0468216,5.0809348 0 0 0 0.970652,-0.0251 1.5603347,0.98522861 0 0 0 0.516804,-0.108773 1.2853713,0.81161089 0 0 0 0,-1.29481 1.4377605,0.90783273 0 0 0 -0.513488,-0.112958 8.9214039,5.6331648 0 0 0 -0.973968,-0.02302 h -3.094164 z"
          id="path921"
          style="stroke-width:0.263242" />
    <path class="cls-2"
          d="m 90.349279,22.442609 v 3.34685 c 0,0.62753 -0.182211,1.106553 -0.539989,1.42241 q -0.967347,0.847172 -4.001878,0.847172 -2.189776,0 -3.355886,-0.4581 a 2.2129587,1.3973094 0 0 1 -0.944145,-0.725847 5.1944901,3.2799119 0 0 1 -0.255092,-1.085635 v -3.34685 a 0.48698345,0.30749174 0 0 0 -0.09276,-0.209179 0.6625625,0.41835611 0 0 0 -0.331282,-0.115044 v -0.140152 h 2.865579 v 0.140152 a 0.6625625,0.41835611 0 0 0 -0.331282,0.112953 0.5035475,0.31795065 0 0 0 -0.09607,0.20918 v 2.978691 a 5.9431856,3.7526543 0 0 0 0.08944,0.763501 1.3715043,0.86599714 0 0 0 0.331281,0.418356 q 0.646,0.445553 2.20634,0.445553 c 1.046851,0 1.782288,-0.148517 2.212961,-0.445553 a 1.4278222,0.90155748 0 0 0 0.331281,-0.418356 6.2579029,3.9513735 0 0 0 0.08614,-0.763501 v -2.976601 a 0.48698345,0.30749174 0 0 0 -0.09277,-0.209179 0.6625625,0.41835611 0 0 0 -0.331282,-0.115044 v -0.140152 h 2.706565 v 0.140152 a 0.6625625,0.41835611 0 0 0 -0.331283,0.115044 0.48698345,0.30749174 0 0 0 -0.12588,0.209179 z"
          id="path923"
          style="stroke-width:0.263242" />
    <path class="cls-2"
          d="m 102.92472,25.902413 1.27542,1.242518 -0.17226,0.07949 a 0.52011156,0.32840955 0 0 0 -0.3114,-0.112958 2.3189688,1.4642464 0 0 0 -0.66256,0.20918 9.1963673,5.8067831 0 0 1 -1.94793,0.585695 6.5394919,4.1291749 0 0 1 -1.878376,0.150608 5.7344783,3.6208722 0 0 1 -3.567899,-0.667274 4.4789225,2.8280873 0 0 1 -1.291996,-0.968497 4.929465,3.1125695 0 0 1 -0.543303,-1.464245 4.7605116,3.0058886 0 0 1 0.973963,-1.882605 q 1.464263,-1.202771 4.435857,-1.202771 a 6.5626816,4.1438174 0 0 1 1.868434,0.148518 9.3918235,5.9301979 0 0 1 1.95125,0.58779 2.4249788,1.5311833 0 0 0 0.66256,0.20918 0.51017313,0.32213421 0 0 0 0.3114,-0.115048 l 0.17226,0.07949 -1.27542,1.255065 -0.18221,-0.07949 c 0,-0.04601 0,-0.08577 0,-0.117144 a 0.53336281,0.33677667 0 0 0 -0.16896,-0.236369 2.7595728,1.7424532 0 0 0 -0.59961,-0.267746 4.9394034,3.1188448 0 0 0 -2.511114,-0.451824 3.7037244,2.3386107 0 0 0 -2.511123,0.512486 3.3293766,2.1022395 0 0 0 0,3.13767 3.7004115,2.3365189 0 0 0 2.511123,0.510392 4.9095881,3.1000188 0 0 0 2.521054,-0.437183 2.878834,1.8177574 0 0 0 0.59962,-0.267747 0.54661407,0.3451438 0 0 0 0.16895,-0.238463 c 0,-0.03346 0,-0.07112 0,-0.11505 z"
          id="path925"
          style="stroke-width:0.263242" />
    <path class="cls-2"
          d="m 112.18071,22.967647 v 4.518246 a 0.48698345,0.30749174 0 0 0 0.0962,0.209175 0.69900344,0.4413657 0 0 0 0.33128,0.112958 v 0.140152 h -2.87553 v -0.140152 a 0.69569063,0.43927392 0 0 0 0.3313,-0.112958 0.48698345,0.30749174 0 0 0 0.0927,-0.209175 v -4.518246 h -2.85233 a 0.43397844,0.27402325 0 0 0 -0.30809,0.06066 0.6625625,0.41835611 0 0 0 -0.17559,0.209175 h -0.21532 V 21.69375 h 0.21532 a 0.80170063,0.5062109 0 0 0 0.17889,0.20918 0.44060407,0.27820681 0 0 0 0.30479,0.05857 h 7.72878 a 0.47373218,0.29912462 0 0 0 0.33128,-0.05857 0.76857251,0.48529309 0 0 0 0.17558,-0.20918 h 0.21534 v 1.543734 h -0.21542 a 0.73213156,0.46228351 0 0 0 -0.17558,-0.209175 0.45716813,0.28866572 0 0 0 -0.33127,-0.06066 z"
          id="path927"
          style="stroke-width:0.263242" />
    <path class="cls-2"
          d="m 118.85603,27.485893 v -5.047469 a 0.47373218,0.29912462 0 0 0 -0.0927,-0.209175 0.6625625,0.41835611 0 0 0 -0.33128,-0.115049 v -0.140151 h 2.8656 V 22.1142 a 0.6625625,0.41835611 0 0 0 -0.33129,0.112954 0.49029625,0.30958352 0 0 0 -0.0962,0.209179 v 5.04956 a 0.48367064,0.30539996 0 0 0 0.0994,0.209175 0.63606001,0.40162187 0 0 0 0.33129,0.110868 v 0.140146 h -2.86559 v -0.140146 a 0.69569063,0.43927392 0 0 0 0.33127,-0.112959 0.48698345,0.30749174 0 0 0 0.0895,-0.207084 z"
          id="path929"
          style="stroke-width:0.263242" />
    <path class="cls-2"
          d="m 129.76844,21.877827 q 2.39846,0 3.80973,0.836715 a 4.7373218,2.9912462 0 0 1 1.48745,2.282132 4.7936397,3.0268065 0 0 1 -0.71556,1.600212 q -1.39139,1.451694 -4.56837,1.451694 -2.38523,0 -3.78986,-0.836711 a 4.6843168,2.9577777 0 0 1 -1.14622,-1.081449 5.0321622,3.1774147 0 0 1 -0.3313,-1.167215 4.9692187,3.1376709 0 0 1 0.70894,-1.639955 q 1.33838,-1.41823 4.54519,-1.445423 z m 0,1.014516 a 3.1074181,1.9620901 0 0 0 -2.18977,0.508301 3.4917044,2.2047367 0 0 0 0,3.13767 3.127295,1.9746408 0 0 0 2.20302,0.506211 3.0676644,1.9369888 0 0 0 2.98153,-1.255066 3.428761,2.1649929 0 0 0 0.24183,-0.803246 3.1968641,2.0185683 0 0 0 -1.03692,-1.593935 3.2366178,2.0436696 0 0 0 -2.19307,-0.508301 z"
          id="path931"
          style="stroke-width:0.263242" />
    <path class="cls-2"
          d="m 140.54169,23.862929 v 3.622964 a 0.48698345,0.30749174 0 0 0 0.0962,0.209175 0.69900344,0.4413657 0 0 0 0.33128,0.112958 v 0.140152 h -2.69663 v -0.140152 a 0.68243938,0.4309068 0 0 0 0.33128,-0.112958 0.48698345,0.30749174 0 0 0 0.0962,-0.209175 v -5.047469 a 0.47373218,0.29912462 0 0 0 -0.0962,-0.209175 0.6625625,0.41835611 0 0 0 -0.33128,-0.115049 v -0.140151 h 3.12068 V 22.1142 c -0.19215,0.03346 -0.28822,0.100407 -0.28822,0.209181 a 0.56317813,0.35560269 0 0 0 0.18883,0.230091 l 5.06529,3.424245 v -3.539293 a 0.47373218,0.29912462 0 0 0 -0.0962,-0.209175 0.64268562,0.40580543 0 0 0 -0.33128,-0.115049 v -0.140151 h 2.69663 V 22.1142 a 0.6625625,0.41835611 0 0 0 -0.33129,0.115049 0.47373218,0.29912462 0 0 0 -0.0962,0.209175 v 5.047469 a 0.48698345,0.30749174 0 0 0 0.0962,0.209175 0.69900344,0.4413657 0 0 0 0.33129,0.112958 v 0.140152 h -2.88546 v -0.140152 c 0.18883,-0.0251 0.28158,-0.08786 0.28158,-0.188262 0,-0.05647 -0.10931,-0.158974 -0.33128,-0.305397 z"
          id="path933"
          style="stroke-width:0.263242" />
    <path class="cls-2"
          d="m 165.83503,22.48863 -1.10981,1.405673 -0.18883,-0.06902 c 0,-0.0293 0,-0.05229 0,-0.07112 0,-0.09832 -0.12918,-0.209179 -0.39089,-0.317953 a 4.6975682,2.9661449 0 0 0 -2.81258,-0.54386 3.9157444,2.4724847 0 0 0 -1.25557,0.115049 1.4510119,0.9161999 0 0 0 -0.64268,0.261471 0.88452094,0.5585054 0 0 0 -0.24846,0.380705 0.74538282,0.47065063 0 0 0 0.62612,0.4581 10.160396,6.4154909 0 0 0 1.38807,0.131781 l 1.05347,0.06902 a 8.215775,5.187616 0 0 1 1.5239,0.179892 3.5314581,2.2298381 0 0 1 1.03359,0.317953 2.3189688,1.4642464 0 0 1 0.72219,0.564778 2.6668141,1.6838834 0 0 1 0.26835,0.74677 2.7463215,1.7340861 0 0 1 -0.62612,1.119099 3.3492535,2.1147902 0 0 1 -1.7558,0.658913 6.7879528,4.2860584 0 0 1 -1.90487,0.161064 7.8778682,4.974254 0 0 1 -3.57784,-0.571053 1.8717391,1.181856 0 0 0 -0.45054,-0.115049 0.57974218,0.3660616 0 0 0 -0.27827,0.09622 l -0.19546,-0.06484 0.99384,-1.464251 0.19546,0.06066 v 0.05648 a 0.76194687,0.48110953 0 0 0 0.28822,0.361873 3.6440938,2.3009586 0 0 0 1.35162,0.439278 5.7841707,3.6522488 0 0 0 1.73592,0.181982 3.4121968,2.1545339 0 0 0 1.5272,-0.196624 1.4742015,0.93084233 0 0 0 0.55986,-0.288669 0.99384378,0.62753416 0 0 0 0.20872,-0.378611 0.69237782,0.43718214 0 0 0 -0.4903,-0.418355 6.2247747,3.9304557 0 0 0 -1.38807,-0.161069 l -1.03691,-0.07112 a 12.873589,8.1286594 0 0 1 -1.4709,-0.133876 3.5910887,2.2674901 0 0 1 -0.86132,-0.209175 2.2957792,1.4496039 0 0 1 -0.96403,-0.589885 2.6104963,1.6483231 0 0 1 -0.33127,-0.815793 2.6502499,1.6734244 0 0 1 0.8017,-1.25507 q 1.05016,-0.652633 3.14716,-0.652633 a 6.9900344,4.413657 0 0 1 1.65642,0.117139 11.972505,7.5596948 0 0 1 1.89492,0.418354 2.1003233,1.3261889 0 0 0 0.47704,0.100408 0.54992687,0.34723558 0 0 0 0.33128,-0.100408 z"
          id="path935"
          style="stroke-width:0.263242" />
    <path class="cls-2"
          d="m 171.42705,25.33345 v 1.635771 h 5.90675 a 0.4505425,0.28448216 0 0 0 0.30807,-0.06066 0.73544438,0.46437529 0 0 0 0.1756,-0.209175 h 0.21533 v 1.543735 h -0.21533 a 0.73544438,0.46437529 0 0 0 -0.1756,-0.219636 0.4505425,0.28448216 0 0 0 -0.30807,-0.06066 h -8.34166 v -0.140151 a 0.69900344,0.4413657 0 0 0 0.33128,-0.112954 0.48698345,0.30749174 0 0 0 0.0962,-0.20918 v -5.057925 a 0.48698345,0.30749174 0 0 0 -0.0962,-0.209179 0.6625625,0.41835611 0 0 0 -0.33128,-0.115044 V 21.97824 h 8.17934 a 0.43066563,0.27193148 0 0 0 0.30808,-0.06066 0.70894188,0.44764104 0 0 0 0.17558,-0.209175 h 0.21533 v 1.543728 h -0.22526 a 0.67912657,0.42881501 0 0 0 -0.17558,-0.209175 0.43066563,0.27193148 0 0 0 -0.30809,-0.06275 h -5.73449 v 1.416134 h 3.72691 a 0.43397844,0.27402325 0 0 0 0.3081,-0.06066 0.71888032,0.45391638 0 0 0 0.17557,-0.20918 h 0.21534 v 1.510265 h -0.21534 a 0.7387572,0.46646706 0 0 0 -0.17557,-0.209175 0.43729125,0.27611504 0 0 0 -0.3081,-0.06275 z"
          id="path937"
          style="stroke-width:0.263242" />
    <path class="cls-2"
          d="m 183.67122,25.517527 v 1.980917 a 0.47373218,0.29912462 0 0 0 0.0994,0.209175 0.62280875,0.39325475 0 0 0 0.33127,0.110868 v 0.140147 h -2.86557 v -0.140147 a 0.69569063,0.43927392 0 0 0 0.33129,-0.112958 0.49029625,0.30958352 0 0 0 0.0927,-0.209181 v -5.053739 a 0.50686031,0.32004243 0 0 0 -0.0927,-0.209179 0.6625625,0.41835611 0 0 0 -0.33129,-0.115044 v -0.140152 h 5.74442 a 8.8021431,5.5578609 0 0 1 1.65641,0.07949 2.8854597,1.8219409 0 0 1 1.07335,0.276113 2.1566409,1.3617491 0 0 1 0.79176,0.627534 3.2068024,2.0248436 0 0 1 0.25177,0.803242 q 0,1.46425 -2.49786,1.71108 l 1.78229,1.648321 a 5.7079759,3.6041379 0 0 0 0.68907,0.556412 0.85139281,0.53758761 0 0 0 0.53667,0.138062 v 0.140146 h -3.31282 v -0.140146 c 0.22859,-0.02302 0.33129,-0.07531 0.33129,-0.156885 a 1.8121085,1.144204 0 0 0 -0.31471,-0.380705 L 186.10613,25.5238 Z m 0,-0.985228 h 3.09414 a 8.0468216,5.0809348 0 0 0 0.97067,-0.0251 1.5603347,0.98522861 0 0 0 0.5168,-0.108773 1.2853713,0.81161089 0 0 0 0,-1.29481 1.4377605,0.90783273 0 0 0 -0.51349,-0.112958 8.9214039,5.6331648 0 0 0 -0.97398,-0.02302 h -3.09414 z"
          id="path939"
          style="stroke-width:0.263242" />
    <path class="cls-2"
          d="m 198.34366,26.218271 2.43491,-3.503729 a 1.5272065,0.96431085 0 0 0 0.15569,-0.347237 c 0,-0.123414 -0.14907,-0.209179 -0.4439,-0.244739 v -0.140147 h 3.14385 v 0.140147 a 0.6625625,0.41835611 0 0 0 -0.41079,0.110864 4.081385,2.5770737 0 0 0 -0.39754,0.481112 l -3.18361,4.463858 a 1.9644978,1.2404259 0 0 0 -0.20207,0.372335 c 0,0.148518 0.14244,0.236373 0.42404,0.261476 v 0.140147 h -3.16375 v -0.140147 c 0.2816,-0.0251 0.42404,-0.115048 0.42404,-0.265656 A 1.9876876,1.2550683 0 0 0 196.92246,27.1784 l -3.18362,-4.463858 a 4.081385,2.5770737 0 0 0 -0.39754,-0.481112 0.6625625,0.41835611 0 0 0 -0.41077,-0.110864 v -0.140147 h 3.26642 v 0.140147 c -0.29816,0.03766 -0.44392,0.121325 -0.44392,0.244739 a 1.5073297,0.95176018 0 0 0 0.15239,0.347237 z"
          id="path941"
          style="stroke-width:0.263242" />
    <path class="cls-2"
          d="m 206.62237,27.485893 v -5.047469 a 0.47373218,0.29912462 0 0 0 -0.0962,-0.209175 0.64268562,0.40580543 0 0 0 -0.33127,-0.115049 v -0.140151 h 2.86557 V 22.1142 a 0.61949595,0.39116297 0 0 0 -0.33129,0.112954 0.49029625,0.30958352 0 0 0 -0.0962,0.209179 v 5.04956 a 0.48367064,0.30539996 0 0 0 0.0994,0.209175 0.62280875,0.39325475 0 0 0 0.33128,0.110868 v 0.140146 h -2.86557 v -0.140146 a 0.6625625,0.41835611 0 0 0 0.33128,-0.112959 0.48698345,0.30749174 0 0 0 0.0927,-0.207084 z"
          id="path943"
          style="stroke-width:0.263242" />
    <path class="cls-2"
          d="m 221.37433,25.902413 1.27873,1.242518 -0.17556,0.07949 a 0.52342437,0.33050133 0 0 0 -0.3081,-0.112958 2.3189688,1.4642464 0 0 0 -0.68243,0.20918 9.0472911,5.7126528 0 0 1 -1.94795,0.585695 6.5394919,4.1291749 0 0 1 -1.87837,0.150608 5.72454,3.6145968 0 0 1 -3.56458,-0.667274 4.4060407,2.7820681 0 0 1 -1.292,-0.968497 4.8930241,3.0895599 0 0 1 -0.54661,-1.464245 4.7439476,2.9954298 0 0 1 0.99385,-1.882605 q 1.46426,-1.202774 4.43255,-1.202774 a 6.5626816,4.1438174 0 0 1 1.86841,0.148519 9.3918235,5.9301979 0 0 1 1.95125,0.587789 2.4249788,1.5311833 0 0 0 0.68244,0.20918 0.51348595,0.32422599 0 0 0 0.30809,-0.115048 l 0.17558,0.07949 -1.27874,1.255066 -0.18221,-0.07949 a 1.3847557,0.87436429 0 0 0 0,-0.117145 0.53336281,0.33677667 0 0 0 -0.16895,-0.236368 2.805952,1.7717382 0 0 0 -0.5963,-0.267747 4.9692187,3.1376709 0 0 0 -2.52438,-0.437183 3.693786,2.3323353 0 0 0 -2.50779,0.512487 3.3293766,2.1022395 0 0 0 0,3.13767 3.693786,2.3323353 0 0 0 2.50779,0.510391 4.929465,3.1125695 0 0 0 2.52438,-0.437182 2.9285263,1.8491341 0 0 0 0.5963,-0.267747 0.54661407,0.3451438 0 0 0 0.16895,-0.238464 1.2721199,0.80324374 0 0 0 0,-0.115043 z"
          id="path945"
          style="stroke-width:0.263242" />
    <path class="cls-2"
          d="m 228.25502,25.33345 v 1.635771 h 5.90676 a 0.45716813,0.28866572 0 0 0 0.3081,-0.06066 0.73544438,0.46437529 0 0 0 0.17556,-0.209175 h 0.21535 v 1.543735 h -0.21535 a 0.73544438,0.46437529 0 0 0 -0.17556,-0.219636 0.45716813,0.28866572 0 0 0 -0.3081,-0.06066 h -8.34167 v -0.140151 a 0.69900344,0.4413657 0 0 0 0.33129,-0.112954 0.48698345,0.30749174 0 0 0 0.0927,-0.20918 v -5.057925 a 0.48698345,0.30749174 0 0 0 -0.0927,-0.209179 0.6625625,0.41835611 0 0 0 -0.33129,-0.115044 V 21.97824 h 8.17934 a 0.43066563,0.27193148 0 0 0 0.30809,-0.06066 0.70894188,0.44764104 0 0 0 0.17557,-0.209175 h 0.21535 v 1.543728 h -0.21535 a 0.67912657,0.42881501 0 0 0 -0.17557,-0.209175 0.43066563,0.27193148 0 0 0 -0.30809,-0.06275 h -5.74443 v 1.416134 h 3.72031 a 0.44060407,0.27820681 0 0 0 0.30809,-0.06066 0.71888032,0.45391638 0 0 0 0.17559,-0.20918 h 0.21531 v 1.510265 h -0.21531 a 0.7387572,0.46646706 0 0 0 -0.17559,-0.209175 0.44060407,0.27820681 0 0 0 -0.30809,-0.06275 z"
          id="path947"
          style="stroke-width:0.263242" />
    <path class="cls-2"
          d="m 246.60801,22.48863 -1.09653,1.405673 -0.18883,-0.06902 a 0.74538282,0.47065063 0 0 0 0,-0.07112 c 0,-0.09832 -0.1292,-0.209179 -0.39092,-0.317953 a 4.6942554,2.964053 0 0 0 -2.80925,-0.54386 3.9223701,2.4766682 0 0 0 -1.25888,0.115049 1.4510119,0.9161999 0 0 0 -0.64269,0.261471 0.88120812,0.55641361 0 0 0 -0.24515,0.380705 0.74538282,0.47065063 0 0 0 0.62613,0.4581 10.080888,6.3652884 0 0 0 1.38474,0.131781 l 1.0568,0.06902 a 8.2820312,5.2294516 0 0 1 1.5239,0.179892 3.5115814,2.2172874 0 0 1 1.03028,0.317953 2.3355329,1.4747053 0 0 1 0.72551,0.564778 2.7098806,1.7110766 0 0 1 0.26502,0.74677 2.7463215,1.7340861 0 0 1 -0.62612,1.119099 3.3360022,2.106423 0 0 1 -1.75579,0.658913 6.7879528,4.2860584 0 0 1 -1.90487,0.161064 7.8778682,4.974254 0 0 1 -3.59109,-0.571053 1.8187341,1.1483875 0 0 0 -0.45055,-0.115049 0.55986532,0.35351092 0 0 0 -0.27496,0.09622 l -0.19544,-0.06484 0.99384,-1.464251 0.19545,0.06066 v 0.05648 a 0.76194687,0.48110953 0 0 0 0.28822,0.361873 3.6639707,2.3135093 0 0 0 1.35494,0.439278 5.7676065,3.64179 0 0 0 1.73592,0.181982 3.4221352,2.1608093 0 0 0 1.5272,-0.196624 1.4907656,0.94130125 0 0 0 0.55655,-0.288669 0.99384378,0.62753416 0 0 0 0.2087,-0.378611 0.68906501,0.43509036 0 0 0 -0.4903,-0.418355 6.2247747,3.9304557 0 0 0 -1.38475,-0.161069 l -1.0369,-0.07112 a 12.963036,8.1851376 0 0 1 -1.48084,-0.12969 3.6440938,2.3009586 0 0 1 -0.86132,-0.209181 2.2692766,1.4328697 0 0 1 -0.96072,-0.58988 2.5773681,1.6274052 0 0 1 -0.33129,-0.815793 2.6502499,1.6734244 0 0 1 0.80171,-1.25507 q 1.04685,-0.652638 3.14716,-0.652638 a 6.9569063,4.3927392 0 0 1 1.65642,0.117145 11.992382,7.5722458 0 0 1 1.89823,0.418354 1.9876876,1.2550683 0 0 0 0.47706,0.100402 0.54992687,0.34723558 0 0 0 0.33128,-0.100402 z"
          id="path949"
          style="stroke-width:0.263242" />
</svg>